Coordinates
version=1
nRows=4
nColumns=63
inDegrees=yes

Units are S.I. units (second, meters, Newtons, ...)
If the header above contains a line with 'inDegrees', this indicates whether rotational values are in degrees (yes) or radians (no).

endheader
time	pelvis_tilt	pelvis_list	pelvis_rotation	pelvis_tx	pelvis_ty	pelvis_tz	hip_flexion_r	hip_adduction_r	hip_rotation_r	knee_angle_r	knee_angle_r_beta	ankle_angle_r	subtalar_angle_r	mtp_angle_r	hip_flexion_l	hip_adduction_l	hip_rotation_l	knee_angle_l	knee_angle_l_beta	ankle_angle_l	subtalar_angle_l	mtp_angle_l	L5_S1_Flex_Ext	L5_S1_Lat_Bending	L5_S1_axial_rotation	L4_L5_Flex_Ext	L4_L5_Lat_Bending	L4_L5_axial_rotation	L3_L4_Flex_Ext	L3_L4_Lat_Bending	L3_L4_axial_rotation	L2_L3_Flex_Ext	L2_L3_Lat_Bending	L2_L3_axial_rotation	L1_L2_Flex_Ext	L1_L2_Lat_Bending	L1_L2_axial_rotation	L1_T12_Flex_Ext	L1_T12_Lat_Bending	L1_T12_axial_rotation	Abs_r3	Abs_r2	Abs_r1	Abs_t1	Abs_t2	neck_flexion	neck_bending	neck_rotation	arm_flex_r	arm_add_r	arm_rot_r	elbow_flex_r	pro_sup_r	wrist_flex_r	wrist_dev_r	arm_flex_l	arm_add_l	arm_rot_l	elbow_flex_l	pro_sup_l	wrist_flex_l	wrist_dev_l
      2.98113208	     -3.98496250	     -8.96358708	     74.91011007	     -0.05027624	      0.77942669	      0.66583594	     13.57087152	     -2.71513698	     -0.36631325	     15.96535218	      0.27864796	     34.60837281	     16.98341700	      0.00000000	      7.04867765	      1.24545968	    -22.14736262	      6.07652022	      0.10605528	     32.87823514	     10.48258636	      0.00000000	     -0.38667514	     -1.70281017	      0.18146289	     -0.71809440	     -2.26473753	      0.19280432	     -0.63526859	     -4.14021265	      0.19280432	     -0.44193102	     -4.14021265	      0.15878003	     -0.35906653	     -3.47237050	      0.14743860	     -0.22094617	     -2.63765296	      0.13609717	     -2.76198185	    -19.26252922	      1.00924217	      0.00000000	      0.00000000	     15.24260500	     18.11796753	    -27.62725414	     37.89196968	    -60.75556342	     -7.33910051	    149.73642878	     78.04984542	      4.35905310	      1.81679676	     -0.68276896	    -32.02879946	     48.20245205	     21.90538163	     63.76119893	    -13.09027061	     -8.96884905
      3.00000000	     -4.31976306	     -9.29153454	     74.60034242	     -0.04988090	      0.77867197	      0.66648448	     14.21196713	     -2.93969111	     -0.25371817	     16.37509188	      0.28579927	     34.72293502	     16.97862756	      0.00000000	      7.53341255	      1.42640383	    -22.39342387	      6.24681557	      0.10902750	     32.84095247	     10.44458887	      0.00000000	     -0.37604524	     -1.74747409	      0.26453498	     -0.69835362	     -2.32414055	      0.28106841	     -0.61780473	     -4.24880851	      0.28106841	     -0.42978211	     -4.24880851	      0.23146811	     -0.34919561	     -3.56344917	      0.21493467	     -0.21487225	     -2.70683737	      0.19840123	     -2.68605358	    -19.76777645	      1.47126419	      0.00000000	      0.00000000	     15.63758403	     18.45980981	    -27.01416877	     35.89316723	    -60.81187115	     -8.74177691	    149.67376112	     78.65311278	      2.03366067	      4.85003837	     -0.40092425	    -32.25650082	     48.55103368	     22.01678807	     63.94197710	    -13.25281137	     -9.28145908
      3.01886792	     -4.65677436	     -9.55205364	     73.96330596	     -0.04924146	      0.77824591	      0.66703734	     14.77356316	     -3.11347944	      0.20954082	     16.71740019	      0.29177368	     34.62457770	     16.94789641	      0.00000000	      7.84832024	      1.61721618	    -23.21434528	      6.25133846	      0.10910644	     32.65198704	     10.61685601	      0.00000000	     -0.37424379	     -1.80735520	      0.44826252	     -0.69500814	     -2.40378242	      0.47627893	     -0.61484512	     -4.39440344	      0.47627893	     -0.42772323	     -4.39440344	      0.39222971	     -0.34752278	     -3.68555873	      0.36421330	     -0.21384290	     -2.79959321	      0.33619689	     -2.67318597	    -20.44516354	      2.49310168	      0.00000000	      0.00000000	     15.84665814	     18.74789682	    -27.17504716	     32.26037912	    -61.11485059	    -10.94379929	    149.58214554	     80.55135728	     -1.58518711	      6.57264555	      0.25015425	    -32.59997994	     49.82780169	     22.08250561	     64.14153582	    -13.70192317	     -9.42919608
      3.03773585	     -4.63756168	     -9.95641771	     73.90762487	     -0.04983404	      0.77793623	      0.66708486	     15.11686176	     -3.03935844	      0.25871625	     16.72194262	      0.29185296	     34.36568804	     16.78190461	      0.00000000	      8.29352852	      1.49212561	    -23.50607127	      6.38783565	      0.11148876	     32.56073191	     10.80563645	      0.00000000	     -0.37038396	     -1.82617207	      0.51294580	     -0.68784005	     -2.42880885	      0.54500491	     -0.60850381	     -4.44015477	      0.54500491	     -0.42331183	     -4.44015477	      0.44882757	     -0.34393855	     -3.72393009	      0.41676846	     -0.21163740	     -2.82874054	      0.38470935	     -2.64561559	    -20.65802370	      2.85285063	      0.00000000	      0.00000000	     15.87855118	     19.22341112	    -27.45691583	     27.48417397	    -61.36552064	    -13.83867106	    149.35398714	     82.27077789	     -4.54198607	      8.71212605	      0.61855715	    -32.70418699	     50.17301700	     22.18247065	     64.09912763	    -14.18385490	     -9.75187444
